<svg version="1.1" viewBox="0.0 0.0 126.99737532808399 100.0" fill="none" stroke="none" stroke-linecap="square" stroke-miterlimit="10" xmlns:xlink="http://www.w3.org/1999/xlink" xmlns="http://www.w3.org/2000/svg"><clipPath id="p.0"><path d="m0 0l126.997375 0l0 100.0l-126.997375 0l0 -100.0z" clip-rule="nonzero"/></clipPath><g clip-path="url(#p.0)"><path fill="#FFFFFF" fill-opacity="0.0" d="m0 0l126.997375 0l0 100.0l-126.997375 0z" fill-rule="evenodd"/><path fill="#FFFFFF" fill-opacity="0.0" d="m-0.9561273 12.271674c31.51181 0 47.267715 6.4724417 63.02362 12.944882c15.755909 6.4724407 31.511814 12.944881 63.023624 12.944881" fill-rule="evenodd"/><path stroke="#FFFFFF" stroke-width="3.0" stroke-linejoin="round" stroke-linecap="butt" d="m-0.9561273 12.271674c31.51181 0 47.267715 6.4724417 63.02362 12.944882c15.755909 6.4724407 31.511814 12.944881 63.023624 12.944881" fill-rule="evenodd"/><path fill="#FFFFFF" fill-opacity="0.0" d="m-0.9561273 29.39852c31.51181 0 47.267715 6.4724407 63.02362 12.944883c15.755909 6.472439 31.511814 12.944881 63.023624 12.944881" fill-rule="evenodd"/><path stroke="#FFFFFF" stroke-width="3.0" stroke-linejoin="round" stroke-linecap="butt" d="m-0.9561273 29.39852c31.51181 0 47.267715 6.4724407 63.02362 12.944883c15.755909 6.472439 31.511814 12.944881 63.023624 12.944881" fill-rule="evenodd"/><path fill="#FFFFFF" fill-opacity="0.0" d="m-0.9561273 47.40933c31.51181 0 47.267715 6.4724426 63.02362 12.944881c15.755909 6.4724426 31.511814 12.944885 63.023624 12.944885" fill-rule="evenodd"/><path stroke="#FFFFFF" stroke-width="3.0" stroke-linejoin="round" stroke-linecap="butt" d="m-0.9561273 47.40933c31.51181 0 47.267715 6.4724426 63.02362 12.944881c15.755909 6.4724426 31.511814 12.944885 63.023624 12.944885" fill-rule="evenodd"/><path fill="#FFFFFF" fill-opacity="0.0" d="m-0.9561273 63.048466c31.51181 0 47.267715 6.472439 63.02362 12.944881c15.755909 6.4724426 31.511814 12.944878 63.023624 12.944878" fill-rule="evenodd"/><path stroke="#FFFFFF" stroke-width="3.0" stroke-linejoin="round" stroke-linecap="butt" d="m-0.9561273 63.048466c31.51181 0 47.267715 6.472439 63.02362 12.944881c15.755909 6.4724426 31.511814 12.944878 63.023624 12.944878" fill-rule="evenodd"/><path fill="#FFFFFF" fill-opacity="0.0" d="m12.09899 -41.3892l115.937004 0l0 180.97638l-115.937004 0z" fill-rule="evenodd"/><path fill="#FFFFFF" d="m64.58337 72.1108l21.484375 -71.28125l21.75 0l-33.015625 94.78125l-20.375 0l-32.875 -94.78125l21.6875 0l21.34375 71.28125z" fill-rule="nonzero"/><path fill="#FFFFFF" fill-opacity="0.0" d="m-1.3644029 -41.51103l115.937004 0l0 180.97638l-115.937004 0z" fill-rule="evenodd"/><path fill="#FFFFFF" d="m54.307472 0.7077224l19.53125 0l0 65.609375q0 9.0625 -4.0 16.0q-4.0 6.921875 -11.296875 10.703125q-7.28125 3.765625 -16.46875 3.765625q-15.03125 0 -23.4375 -7.640625q-8.390625 -7.65625 -8.390625 -21.65625l19.65625 0q0 6.96875 2.921875 10.296875q2.9375 3.3125 9.25 3.3125q5.59375 0 8.90625 -3.828125q3.328125 -3.84375 3.328125 -10.953125l0 -65.609375z" fill-rule="nonzero"/><path fill="#FFFFFF" fill-opacity="0.0" d="m37.270565 -41.51167l115.93701 0l0 180.97638l-115.93701 0z" fill-rule="evenodd"/><path fill="#FFFFFF" d="m74.27057 79.80083l41.46875 0l0 15.6875l-61.000004 0l0 -94.78125l19.531254 0l0 79.09375z" fill-rule="nonzero"/></g></svg>